<svg width="94" height="94" viewBox="0 0 94 94" fill="none" xmlns="http://www.w3.org/2000/svg">
<circle cx="47" cy="47" r="44.6993" fill="white" stroke="black" stroke-width="4.6014"/>
<path d="M30.1361 33.3713L27.098 40.6029H70.3779L70.3488 33.3714H42.2347V39.2968H40.6363V33.3714H38.8589V39.2968H37.261V33.3714H35.4032V39.2968H33.8048V33.3714L30.1361 33.3713ZM71.4642 35.072V39.4048H73.4556V35.072H71.4642ZM27.7416 42.2012L29.9332 45.6128L24.7713 64.3521L35.6065 65.1166L37.9018 54.674H50.2353L51.7979 46.1222L70.3982 45.7095L70.3843 42.2013H27.7415L27.7416 42.2012ZM49.7649 46.1674L48.5746 52.6828H38.3394L39.7226 46.3903L41.0578 46.3607L40.8208 50.1436L42.3406 51.5903L42.4474 48.0045L45.0784 46.2714L49.765 46.1674H49.7649Z" fill="black"/>
</svg>
